<svg width="770" height="568" viewBox="0 0 770 568" fill="none" xmlns="http://www.w3.org/2000/svg">
<g style="mix-blend-mode:screen" clip-path="url(#clip0_20005153_5103)">
<path opacity="0.1" fill-rule="evenodd" clip-rule="evenodd" d="M-12.1595 422.45C-12.1607 422.451 -12.1615 422.451 -12.2723 421.01L-12.2773 420.945C-12.3831 419.569 -12.3831 419.569 -12.3827 419.569L-12.3799 419.568L-12.3669 419.565C-12.3551 419.562 -12.3368 419.558 -12.3122 419.552C-12.2631 419.539 -12.1886 419.52 -12.0898 419.494C-11.8921 419.442 -11.5969 419.36 -11.2109 419.246C-10.4388 419.017 -9.30395 418.655 -7.86081 418.126C-4.97428 417.069 -0.856129 415.342 4.05694 412.671C13.8865 407.328 26.8791 398.215 39.5539 383.14C64.8628 353.037 88.9598 299.116 83.9996 203.531C79.0502 108.155 40.156 60.1644 2.29199 35.9735C-16.6349 23.8814 -35.2609 17.7715 -49.1614 14.6864C-56.1098 13.1442 -61.8728 12.3588 -65.8963 11.9589C-67.9079 11.759 -69.4844 11.6556 -70.5564 11.6021C-71.0925 11.5753 -71.5023 11.5611 -71.7774 11.5535C-71.9149 11.5497 -72.0188 11.5477 -72.0878 11.5465C-72.1175 11.546 -72.1408 11.5457 -72.1576 11.5455L-72.1651 11.5454L-72.1884 11.5451C-72.1891 11.5451 -72.1894 11.5451 -72.1879 10.8014L-72.1864 10.0912C-72.1834 8.63721 -72.1825 8.63721 -72.1811 8.63725L-72.1755 8.6373L-72.1542 8.63752C-72.1355 8.63774 -72.1081 8.6381 -72.0719 8.63867C-72.0334 8.63934 -71.9851 8.64027 -71.9272 8.64156C-71.876 8.64271 -71.8174 8.64413 -71.7513 8.64595C-71.4694 8.65372 -71.0524 8.66823 -70.5091 8.69534C-69.4225 8.74956 -67.8304 8.85414 -65.8022 9.05572C-61.7459 9.45879 -55.9442 10.2498 -48.9525 11.8016C-34.9728 14.9043 -16.2173 21.0527 2.86126 33.2418C41.0081 57.6133 80.6204 106.277 85.6535 203.268C90.6758 300.05 66.2233 354.934 40.4872 385.545C27.6394 400.826 14.4857 410.047 4.54936 415.448C-0.420484 418.15 -4.59008 419.899 -7.52057 420.973C-8.98594 421.51 -10.1419 421.878 -10.9335 422.113C-11.3294 422.23 -11.6342 422.314 -11.8412 422.369C-11.9446 422.397 -12.0236 422.417 -12.0773 422.43C-12.0908 422.434 -12.1027 422.437 -12.113 422.439L-12.1387 422.445L-12.155 422.449L-12.1595 422.45Z" fill="url(#paint0_linear_20005153_5103)"/>
<path opacity="0.1" fill-rule="evenodd" clip-rule="evenodd" d="M417.084 485.489C430.957 519.725 475.029 588.405 541.203 591.474L541.258 587.84C475.801 584.805 432.265 516.754 418.735 483.281L418.692 483.174L418.64 483.078C394.933 439.435 374.554 422.595 357.245 422.362C339.918 422.127 325.962 438.533 315.113 460.179C304.266 481.822 296.424 508.892 291.301 530.481C288.736 541.288 286.846 550.749 285.596 557.512C284.971 560.894 284.507 563.602 284.197 565.468C284.043 566.401 283.927 567.124 283.85 567.615C283.811 567.861 283.782 568.049 283.763 568.176C283.753 568.239 283.745 568.288 283.74 568.321L283.735 568.359L283.733 568.369C283.733 568.371 283.733 568.373 284.737 568.834C285.741 569.295 285.741 569.295 285.741 569.293L285.742 569.286L285.747 569.253C285.751 569.224 285.758 569.179 285.767 569.119C285.774 569.076 285.782 569.024 285.791 568.964C285.807 568.86 285.827 568.732 285.851 568.581C285.926 568.105 286.039 567.398 286.191 566.481C286.495 564.647 286.954 561.974 287.572 558.631C288.807 551.942 290.679 542.576 293.218 531.876C298.302 510.452 306.04 483.793 316.674 462.576C327.306 441.362 340.735 425.774 357.229 425.996C373.728 426.219 393.588 442.264 417.084 485.489Z" fill="url(#paint1_linear_20005153_5103)"/>
<path opacity="0.1" fill-rule="evenodd" clip-rule="evenodd" d="M343.379 572.108C343.284 572.213 343.068 572.453 342.577 573C341.701 573.975 341.701 573.974 341.7 573.974L341.696 573.961L341.682 573.923C341.671 573.891 341.654 573.844 341.632 573.782C341.588 573.659 341.523 573.477 341.441 573.241C341.275 572.768 341.036 572.075 340.738 571.188C340.144 569.414 339.315 566.862 338.377 563.737C336.502 557.494 334.178 548.932 332.403 539.702C330.632 530.497 329.38 520.493 329.717 511.41C330.056 502.27 332.014 493.928 336.722 488.43C339.169 485.572 342.195 484.753 345.503 485.323C348.807 485.893 352.474 487.86 356.305 490.747C363.968 496.521 372.478 506.118 380.39 516.288C388.313 526.47 395.681 537.284 401.066 545.548C403.759 549.681 405.959 553.179 407.485 555.645C408.249 556.879 408.844 557.854 409.249 558.522C409.452 558.856 409.607 559.113 409.711 559.287C409.763 559.374 409.803 559.44 409.83 559.485L409.87 559.553C409.871 559.553 409.871 559.554 409.152 560.866C408.434 562.177 408.434 562.177 408.434 562.177L408.396 562.114C408.37 562.071 408.332 562.007 408.281 561.921C408.178 561.751 408.026 561.498 407.826 561.168C407.426 560.508 406.835 559.541 406.078 558.317C404.562 555.869 402.376 552.391 399.698 548.281C394.339 540.059 387.02 529.317 379.162 519.218C371.294 509.106 362.932 499.698 355.485 494.086C351.76 491.28 348.312 489.46 345.299 488.941C342.288 488.421 339.793 489.212 337.874 491.454C333.846 496.158 332.098 503.299 331.788 511.645C331.477 520.048 332.637 529.533 334.37 538.542C336.098 547.527 338.37 555.903 340.214 562.045C341.135 565.113 341.948 567.615 342.529 569.348C342.819 570.214 343.052 570.887 343.211 571.342C343.29 571.569 343.352 571.742 343.393 571.857C343.413 571.914 343.428 571.957 343.439 571.985L343.45 572.016L343.452 572.023L343.453 572.025C343.453 572.025 343.453 572.025 343.379 572.108Z" fill="url(#paint2_linear_20005153_5103)"/>
<path opacity="0.1" fill-rule="evenodd" clip-rule="evenodd" d="M274.56 354.572C279.466 369.455 286.317 377.937 295.619 376.85C305.119 375.74 311.718 368.741 316.312 358.532C320.935 348.259 323.58 334.61 324.995 320.106C327.536 294.041 326.055 265.816 325.27 250.863C325.18 249.158 325.1 247.626 325.035 246.289L325.023 246.031C324.392 232.938 322.957 203.15 326.245 173.126C329.555 142.899 337.702 112.043 356.484 97.9831C375.311 83.8895 395.383 99.0403 410.533 117.215C418.141 126.341 424.588 136.323 429.13 144.017C431.402 147.866 433.201 151.147 434.433 153.47C435.05 154.631 435.524 155.553 435.846 156.187C436.007 156.504 436.13 156.749 436.213 156.915C436.245 156.98 436.271 157.032 436.291 157.073L436.291 157.074C442.311 166.398 453.128 180.198 466.018 191.277C478.956 202.396 493.884 210.688 508.095 209.118C515.173 208.336 518.913 204.418 520.623 199.168C522.358 193.844 522.23 186.487 520.7 177.889C517.65 160.757 509.345 140.486 502.539 126.973C497.922 119.053 493.217 108.704 489.826 97.1525C486.431 85.5857 484.318 72.6921 485.007 59.7785C486.4 33.6641 499.102 8.85539 533.163 -5.34405C550.309 -12.492 562.522 -8.39827 570.848 3.50443C579.148 15.3704 583.348 34.6647 584.892 56.9715C587.979 101.556 580.55 159.461 572.796 199.106C571.465 205.909 569.122 213.921 566.647 222.386C566.224 223.832 565.797 225.291 565.371 226.759C562.423 236.918 559.466 247.633 557.751 258.06C556.035 268.492 555.607 278.379 557.55 287.005C559.48 295.575 563.844 303.299 572.185 309.074C581.208 315.32 588.279 313.492 594.427 307.466C600.653 301.364 605.984 290.915 611.422 279.632C611.966 278.502 612.512 277.364 613.059 276.222C617.93 266.059 622.953 255.578 628.749 247.827C635.243 239.141 642.763 233.796 652.222 235.942C670.419 240.07 699.925 238.568 720.159 207.184C740.272 175.985 751.628 114.55 732.724 -2.95249L734.716 -4.02722C753.718 114.085 742.538 177.455 721.501 210.086C700.584 242.531 670.324 243.881 651.966 239.716C643.147 237.716 636.145 242.645 629.974 250.898C624.376 258.386 619.509 268.536 614.61 278.752C614.067 279.885 613.524 281.018 612.979 282.148C607.568 293.377 602.009 304.348 595.407 310.819C588.727 317.366 581.031 319.263 571.451 312.631C562.761 306.615 557.846 298.294 555.63 288.455C553.426 278.67 553.983 267.781 555.762 256.963C557.543 246.139 560.591 235.127 563.537 224.974C563.972 223.476 564.404 221.998 564.829 220.544C567.312 212.051 569.566 204.337 570.84 197.824C578.559 158.361 585.856 101.139 582.832 57.4499C581.32 35.6195 577.255 17.4894 569.57 6.50231C561.91 -4.44804 550.416 -8.63596 533.624 -1.63566C499.809 12.4614 488.331 36.5884 487.074 60.1482C486.438 72.0717 488.382 84.1999 491.656 95.3518C494.927 106.496 499.492 116.544 503.986 124.243L504.014 124.291L504.04 124.342C510.903 137.96 519.478 158.754 522.674 176.71C524.269 185.668 524.605 194.37 522.407 201.116C520.185 207.937 515.599 212.099 508.22 212.914C493.52 214.539 478.227 205.971 465.136 194.72C452.033 183.459 441.037 169.424 434.895 159.893L434.84 159.808L434.792 159.71L434.826 159.654C434.792 159.71 434.792 159.71 434.792 159.709L434.791 159.707L434.786 159.697L434.765 159.654C434.746 159.615 434.716 159.556 434.677 159.477C434.599 159.319 434.481 159.084 434.325 158.777C434.013 158.162 433.549 157.26 432.944 156.12C431.734 153.839 429.961 150.606 427.72 146.809C423.234 139.211 416.879 129.374 409.395 120.396C394.362 102.363 375.089 88.1645 357.27 101.504C339.406 114.876 331.525 144.249 328.281 173.873C325.052 203.359 326.466 232.705 327.095 245.765L327.104 245.954C327.167 247.268 327.247 248.784 327.337 250.48C328.121 265.385 329.636 294.151 327.039 320.775C325.592 335.616 322.852 349.978 317.915 360.951C312.949 371.988 305.813 379.47 295.751 380.646C285.491 381.845 277.982 372.315 272.782 356.537C267.612 340.853 264.664 318.869 263.383 294.593C260.819 246.015 264.893 187.427 271.805 149.436C273.025 142.733 274.357 135.857 275.714 128.853C278.205 115.993 280.78 102.703 282.895 89.261C286.154 68.5481 288.26 47.8109 287.214 28.4429C286.171 9.14523 281.997 -8.83443 272.629 -24.1349C263.232 -39.4822 248.541 -52.2417 226.366 -60.7762L226.793 -64.4982C249.167 -55.8873 264.245 -42.9241 274.011 -26.9733C283.806 -10.9757 288.191 7.91831 289.28 28.0684C290.366 48.1481 288.177 69.4326 284.891 90.3139C282.761 103.851 280.145 117.359 277.638 130.298C276.288 137.272 274.969 144.08 273.776 150.638C266.956 188.121 262.914 246.175 265.45 294.227C266.719 318.266 269.623 339.595 274.56 354.572Z" fill="url(#paint3_linear_20005153_5103)"/>
<path opacity="0.1" fill-rule="evenodd" clip-rule="evenodd" d="M263.118 572.161C263.118 572.162 263.118 572.163 262.116 571.659C261.114 571.155 261.113 571.156 261.113 571.156L261.113 571.155L261.114 571.151L261.118 571.127C261.121 571.105 261.126 571.069 261.132 571.021C261.146 570.926 261.166 570.779 261.192 570.584C261.243 570.194 261.318 569.609 261.407 568.844C261.586 567.313 261.825 565.064 262.059 562.217C262.527 556.519 262.976 548.437 262.899 538.927C262.745 519.895 260.484 495.247 252.098 472.519C248.746 463.434 244.263 453.424 239.269 442.275C237.956 439.342 236.607 436.33 235.234 433.235C228.664 418.427 221.59 401.82 215.387 383.205C202.971 345.949 194.014 300.562 199.49 245.209C202.229 217.525 208.311 194.28 215.045 173.559C218.183 163.904 221.469 154.776 224.623 146.015C224.852 145.381 225.079 144.748 225.306 144.117C228.673 134.761 231.861 125.823 234.563 117.013C239.97 99.388 243.355 82.5164 242.335 64.3211C241.315 46.1357 235.872 26.25 223.167 2.71955L224.635 -3.81591e-05C237.528 23.879 243.314 44.5383 244.401 63.9238C245.487 83.2995 241.856 101.025 236.369 118.912C233.625 127.859 230.397 136.906 227.035 146.25C226.809 146.877 226.583 147.506 226.356 148.136C223.197 156.909 219.936 165.967 216.824 175.542C210.158 196.054 204.209 218.849 201.533 245.902C196.178 300.02 204.907 344.437 217.154 381.185C223.281 399.572 230.282 416.017 236.838 430.794C238.19 433.841 239.525 436.822 240.831 439.736C245.834 450.906 250.401 461.102 253.813 470.349C262.499 493.893 264.818 519.357 264.976 538.87C265.055 548.632 264.593 556.93 264.112 562.795C263.871 565.729 263.624 568.056 263.437 569.657C263.343 570.458 263.265 571.077 263.209 571.5C263.181 571.711 263.159 571.873 263.143 571.984C263.135 572.04 263.129 572.083 263.125 572.113L263.12 572.148L263.118 572.158L263.118 572.161Z" fill="url(#paint4_linear_20005153_5103)"/>
<path opacity="0.1" fill-rule="evenodd" clip-rule="evenodd" d="M321.792 -13.3671C321.791 -13.3685 321.79 -13.3695 322.609 -14.4875C323.427 -15.6055 323.427 -15.6056 323.427 -15.6053L323.434 -15.5892C323.438 -15.5808 323.443 -15.5693 323.45 -15.5546L323.46 -15.532C323.484 -15.4804 323.519 -15.4022 323.566 -15.2986C323.661 -15.0914 323.804 -14.7828 323.992 -14.3828C324.369 -13.5829 324.929 -12.418 325.656 -10.9695C327.11 -8.07171 329.232 -4.0423 331.897 0.470047C337.233 9.50727 344.711 20.423 353.326 28.0891C361.943 35.756 371.614 40.0998 381.397 36.2496C391.159 32.4076 401.23 20.3284 410.576 -5.54323L412.33 -3.60017C402.777 22.8468 392.292 35.6875 381.852 39.796C371.434 43.8962 361.255 39.2213 352.386 31.3296C343.516 23.4371 335.869 12.2544 330.454 3.08281C327.742 -1.50923 325.581 -5.61181 324.096 -8.56994C323.354 -10.0493 322.78 -11.2434 322.39 -12.0703C322.196 -12.4839 322.047 -12.8057 321.946 -13.0256C321.908 -13.1099 321.876 -13.1793 321.852 -13.233L321.832 -13.2778L321.812 -13.3204L321.802 -13.3442L321.792 -13.3671Z" fill="url(#paint5_linear_20005153_5103)"/>
<path opacity="0.1" fill-rule="evenodd" clip-rule="evenodd" d="M127.442 323.626C133.943 309.802 133.835 291.532 127.701 282.688C121.567 273.844 111.306 277.163 104.804 290.987C98.3029 304.812 98.4112 323.082 104.545 331.926C110.679 340.77 120.941 337.451 127.442 323.626ZM128.757 280.443C135.834 290.646 135.595 310.866 128.724 325.475C121.854 340.084 110.566 344.374 103.489 334.171C96.4127 323.968 96.6518 303.748 103.522 289.139C110.393 274.53 121.68 270.24 128.757 280.443Z" fill="url(#paint6_linear_20005153_5103)"/>
<path opacity="0.1" fill-rule="evenodd" clip-rule="evenodd" d="M184.143 533.361C190.31 501.971 191.91 464.144 174.331 436.619C165.457 422.725 156.963 416.385 148.716 415.166C140.456 413.944 132.347 417.845 124.237 424.736C116.122 431.632 108.059 441.476 99.8956 452.043C97.9501 454.562 95.9981 457.122 94.0391 459.692C87.7999 467.877 81.4887 476.156 75.0834 483.47C58.0853 502.88 32.7088 507.96 11.7257 508.261C1.20888 508.411 -8.25337 507.361 -15.0862 506.273C-18.5032 505.729 -21.2641 505.175 -23.1722 504.757C-24.1262 504.548 -24.8672 504.373 -25.3705 504.25C-25.6222 504.189 -25.8144 504.14 -25.9442 504.107C-26.009 504.09 -26.0583 504.077 -26.0916 504.069L-26.1294 504.059L-26.1418 504.055C-26.1425 504.055 -26.1429 504.055 -26.0138 502.578C-25.9365 501.695 -25.9055 501.34 -25.8929 501.198C-25.8845 501.102 -25.8844 501.102 -25.8842 501.102L-25.8737 501.105L-25.8385 501.114C-25.8071 501.122 -25.7596 501.135 -25.6966 501.151C-25.5704 501.183 -25.3819 501.231 -25.1341 501.292C-24.6384 501.413 -23.9056 501.586 -22.96 501.793C-21.0688 502.207 -18.3271 502.757 -14.9314 503.298C-8.13883 504.379 1.26518 505.423 11.7117 505.273C32.6555 504.973 57.5942 499.874 74.1501 480.968C80.5043 473.712 86.753 465.516 92.9823 457.344C94.9492 454.764 96.9142 452.187 98.88 449.642C107.05 439.066 115.222 429.076 123.491 422.049C131.766 415.017 140.19 410.907 148.86 412.189C157.542 413.473 166.373 420.151 175.469 434.393C193.828 463.139 192.002 502.551 185.758 534.332C182.63 550.253 178.374 564.384 174.904 574.526C173.169 579.6 171.627 583.683 170.519 586.5C169.964 587.909 169.518 589.002 169.209 589.744C169.055 590.116 168.935 590.4 168.853 590.592C168.812 590.688 168.781 590.761 168.76 590.81C168.749 590.835 168.741 590.854 168.735 590.867L168.727 590.886C168.726 590.888 168.726 590.888 168.047 589.983C167.368 589.077 167.368 589.077 167.368 589.077L167.374 589.063C167.379 589.052 167.386 589.035 167.396 589.012C167.416 588.967 167.445 588.898 167.484 588.807C167.562 588.624 167.678 588.349 167.828 587.988C168.129 587.264 168.567 586.192 169.112 584.806C170.203 582.033 171.725 578.004 173.439 572.992C176.87 562.962 181.066 549.024 184.143 533.361Z" fill="url(#paint7_linear_20005153_5103)"/>
<path opacity="0.1" fill-rule="evenodd" clip-rule="evenodd" d="M161.008 170.431C169.292 156.523 175.486 133.068 178.522 101.655C181.541 70.4338 177.427 35.246 172.515 7.75283C170.063 -5.9722 167.421 -17.7345 165.392 -26.0641C164.378 -30.2282 163.517 -33.5327 162.911 -35.7935C162.607 -36.9238 162.368 -37.7932 162.205 -38.3785C162.123 -38.6711 162.06 -38.8928 162.018 -39.0405C161.997 -39.1144 161.981 -39.1698 161.971 -39.2064L161.956 -39.2567L161.956 -39.2589C161.956 -39.2592 161.956 -39.2592 162.697 -39.9159C163.438 -40.5725 163.438 -40.572 163.438 -40.5711L163.439 -40.5679L163.442 -40.556L163.455 -40.5108C163.467 -40.4713 163.483 -40.4129 163.505 -40.3359C163.549 -40.1821 163.613 -39.9542 163.697 -39.6551C163.864 -39.0569 164.107 -38.174 164.414 -37.0295C165.028 -34.7405 165.897 -31.4042 166.92 -27.205C168.965 -18.8079 171.628 -6.95292 174.1 6.8847C179.037 34.5169 183.245 70.2358 180.159 102.14C177.091 133.886 170.796 158.026 162.158 172.53C153.475 187.108 142.477 191.847 130.265 184.892C124.169 181.42 119.92 176.095 117.042 169.627C114.168 163.167 112.703 155.661 112.087 147.934C110.984 134.13 112.578 119.377 113.783 108.225C113.92 106.954 114.052 105.73 114.175 104.559C115.412 92.7142 115.49 70.8872 107.303 45.886C99.115 20.8823 82.6157 -7.43173 50.5585 -32.0975L51.2267 -34.7597C83.5183 -9.91347 100.336 18.7633 108.744 44.4396C117.152 70.1178 117.106 92.6596 115.809 105.083L115.809 105.084C115.685 106.267 115.552 107.495 115.416 108.763C114.207 119.971 112.67 134.236 113.731 147.532C114.319 154.892 115.7 161.88 118.352 167.84C120.999 173.79 124.954 178.809 130.779 182.127C142.411 188.752 152.769 184.264 161.008 170.431Z" fill="url(#paint8_linear_20005153_5103)"/>
<path opacity="0.1" fill-rule="evenodd" clip-rule="evenodd" d="M506.913 417.343C523.348 425.365 539.647 422.668 560.754 418.997C571.204 417.18 577.2 412.05 579.964 405.66C582.666 399.415 582.47 391.474 579.813 382.999C577.15 374.506 572.077 365.757 565.386 358.423C558.707 351.103 550.474 345.259 541.561 342.508C523.428 336.909 513.084 321.689 503.139 307.055C503.022 306.882 502.905 306.71 502.788 306.538C492.752 291.773 483.044 277.744 465.885 274.06C459.114 272.606 454.241 275.363 450.865 280.438C447.469 285.545 445.468 293.181 444.669 301.852C443.871 310.519 444.286 320.094 445.653 328.877C447.021 337.671 449.323 345.543 452.229 350.878C473.859 390.579 490.508 409.335 506.913 417.343ZM506.402 420.552C489.535 412.319 472.602 393.097 450.852 353.177C447.67 347.337 445.243 338.919 443.817 329.752C442.389 320.574 441.944 310.517 442.791 301.322C443.638 292.132 445.79 283.679 449.626 277.911C453.483 272.112 458.922 269.209 466.116 270.753C483.871 274.565 493.951 289.186 504.012 303.987L504.307 304.422C514.252 319.055 524.262 333.784 541.891 339.227C551.053 342.055 559.516 348.059 566.396 355.6C573.264 363.128 578.614 372.253 581.481 381.396C584.353 390.556 584.794 400.012 581.481 407.671C578.231 415.184 571.563 420.465 560.942 422.312C539.905 425.971 523.24 428.771 506.402 420.552Z" fill="url(#paint9_linear_20005153_5103)"/>
<path opacity="0.1" fill-rule="evenodd" clip-rule="evenodd" d="M716.802 496.148C696.556 512.851 680.755 546.782 672.414 573.025L670.751 571.405C679.203 544.815 695.256 510.241 715.991 493.134C726.377 484.565 737.957 480.366 750.334 483.796C762.71 487.226 775.803 498.261 789.24 519.924L787.951 522.375C774.734 501.066 761.973 490.394 750.036 487.086C738.099 483.779 726.906 487.812 716.802 496.148Z" fill="url(#paint10_linear_20005153_5103)"/>
<path opacity="0.1" fill-rule="evenodd" clip-rule="evenodd" d="M617.674 507.577C570.288 515.132 557.09 554.536 556.224 572.354L554.329 572.072C555.302 552.023 569.604 511.895 617.502 504.259C647.035 499.55 661.417 482.375 674.306 464.044C675.702 462.058 677.083 460.055 678.464 458.051C689.894 441.47 701.404 424.772 722.598 416.509C746.295 407.27 769.095 412.971 785.77 425.728C794.107 432.106 800.951 440.276 805.611 449.296C810.266 458.308 812.802 468.301 812.321 478.241L810.425 477.96C810.847 469.244 808.638 460.123 804.2 451.531C799.765 442.946 793.166 435.022 785.009 428.781C768.697 416.303 746.309 410.677 723.011 419.761C702.282 427.843 691.098 444.059 679.681 460.614C678.298 462.619 676.912 464.629 675.505 466.63C662.423 485.236 647.694 502.791 617.674 507.577Z" fill="url(#paint11_linear_20005153_5103)"/>
<path opacity="0.1" fill-rule="evenodd" clip-rule="evenodd" d="M759.225 295.257C764.557 300.507 771.328 302.957 775.941 303.58L775.808 306.886C771.042 306.243 763.997 303.722 758.364 298.176C752.725 292.624 748.276 283.762 749.372 270.479C750.651 254.98 752.865 242.102 754.839 231.45C755.123 229.913 755.402 228.428 755.671 226.992C757.286 218.379 758.568 211.546 758.867 205.959C758.949 204.425 758.903 202.108 758.788 199.099C758.728 197.516 758.652 195.815 758.57 193.987C758.496 192.327 758.417 190.561 758.34 188.683C758.024 180.898 757.778 171.664 758.267 162.726C758.755 153.808 759.983 145.009 762.687 138.214C765.423 131.34 769.612 126.668 775.811 125.875L775.938 129.183C770.239 129.911 766.556 134.131 764.155 140.164C761.722 146.276 760.546 154.398 760.072 163.056C759.6 171.695 759.835 180.693 760.149 188.438C760.223 190.242 760.302 192.007 760.376 193.68C760.46 195.547 760.538 197.3 760.598 198.868C760.712 201.853 760.771 204.433 760.672 206.282C760.351 212.289 758.985 219.563 757.378 228.12C757.11 229.548 756.835 231.013 756.557 232.513C754.595 243.105 752.421 255.765 751.166 270.973C750.235 282.256 753.9 290.014 759.225 295.257Z" fill="url(#paint12_linear_20005153_5103)"/>
<path opacity="0.1" fill-rule="evenodd" clip-rule="evenodd" d="M639.155 128.328C643.296 139.13 650.809 145.525 665.687 143.589C677.483 142.054 685.881 133.759 691.754 121.355C697.65 108.9 701.054 92.1864 702.697 73.7081C705.982 36.7342 702.164 -6.74615 697.61 -35.52L699.443 -36.4098C704.037 -7.3906 707.92 36.6022 704.577 74.2203C702.904 93.038 699.412 110.4 693.219 123.481C687.002 136.612 678.118 145.312 665.828 146.911C650.601 148.892 642.253 142.387 637.575 130.184C635.272 124.176 633.914 116.92 633.007 108.956C632.101 100.997 631.631 92.2033 631.146 83.0963C630.171 64.7969 629.121 45.126 624.455 27.1254C619.814 9.21754 611.564 -7.12456 596.061 -18.593L596.802 -21.6618C612.736 -9.87409 621.345 7.06346 626.188 25.7486C630.987 44.2652 632.061 64.4116 633.028 82.564L633.04 82.7868C633.528 91.9346 633.989 100.547 634.873 108.305C635.756 116.059 637.049 122.833 639.155 128.328Z" fill="url(#paint13_linear_20005153_5103)"/>
</g>
<defs>
<linearGradient id="paint0_linear_20005153_5103" x1="86.314" y1="214.554" x2="-72.1889" y2="214.554" gradientUnits="userSpaceOnUse">
<stop stop-color="#6366F1"/>
<stop offset="0.5" stop-color="#8B5CF6"/>
<stop offset="1" stop-color="#D946EF"/>
</linearGradient>
<linearGradient id="paint1_linear_20005153_5103" x1="541.258" y1="506.512" x2="283.733" y2="506.512" gradientUnits="userSpaceOnUse">
<stop stop-color="#6366F1"/>
<stop offset="0.5" stop-color="#8B5CF6"/>
<stop offset="1" stop-color="#D946EF"/>
</linearGradient>
<linearGradient id="paint2_linear_20005153_5103" x1="409.87" y1="529.351" x2="329.662" y2="529.351" gradientUnits="userSpaceOnUse">
<stop stop-color="#6366F1"/>
<stop offset="0.5" stop-color="#8B5CF6"/>
<stop offset="1" stop-color="#D946EF"/>
</linearGradient>
<linearGradient id="paint3_linear_20005153_5103" x1="744.452" y1="157.059" x2="226.366" y2="157.059" gradientUnits="userSpaceOnUse">
<stop stop-color="#6366F1"/>
<stop offset="0.5" stop-color="#8B5CF6"/>
<stop offset="1" stop-color="#D946EF"/>
</linearGradient>
<linearGradient id="paint4_linear_20005153_5103" x1="264.985" y1="284.712" x2="197.847" y2="284.712" gradientUnits="userSpaceOnUse">
<stop stop-color="#6366F1"/>
<stop offset="0.5" stop-color="#8B5CF6"/>
<stop offset="1" stop-color="#D946EF"/>
</linearGradient>
<linearGradient id="paint5_linear_20005153_5103" x1="412.33" y1="12.7177" x2="321.791" y2="12.7177" gradientUnits="userSpaceOnUse">
<stop stop-color="#6366F1"/>
<stop offset="0.5" stop-color="#8B5CF6"/>
<stop offset="1" stop-color="#D946EF"/>
</linearGradient>
<linearGradient id="paint6_linear_20005153_5103" x1="128.697" y1="280.356" x2="86.475" y2="309.64" gradientUnits="userSpaceOnUse">
<stop stop-color="#6366F1"/>
<stop offset="0.5" stop-color="#8B5CF6"/>
<stop offset="1" stop-color="#D946EF"/>
</linearGradient>
<linearGradient id="paint7_linear_20005153_5103" x1="190.123" y1="500.993" x2="-26.142" y2="500.993" gradientUnits="userSpaceOnUse">
<stop stop-color="#6366F1"/>
<stop offset="0.5" stop-color="#8B5CF6"/>
<stop offset="1" stop-color="#D946EF"/>
</linearGradient>
<linearGradient id="paint8_linear_20005153_5103" x1="181.211" y1="73.19" x2="50.5585" y2="73.19" gradientUnits="userSpaceOnUse">
<stop stop-color="#6366F1"/>
<stop offset="0.5" stop-color="#8B5CF6"/>
<stop offset="1" stop-color="#D946EF"/>
</linearGradient>
<linearGradient id="paint9_linear_20005153_5103" x1="583.803" y1="347.746" x2="442.363" y2="347.746" gradientUnits="userSpaceOnUse">
<stop stop-color="#6366F1"/>
<stop offset="0.5" stop-color="#8B5CF6"/>
<stop offset="1" stop-color="#D946EF"/>
</linearGradient>
<linearGradient id="paint10_linear_20005153_5103" x1="789.24" y1="527.596" x2="670.751" y2="527.596" gradientUnits="userSpaceOnUse">
<stop stop-color="#6366F1"/>
<stop offset="0.5" stop-color="#8B5CF6"/>
<stop offset="1" stop-color="#D946EF"/>
</linearGradient>
<linearGradient id="paint11_linear_20005153_5103" x1="812.379" y1="491.772" x2="554.329" y2="491.772" gradientUnits="userSpaceOnUse">
<stop stop-color="#6366F1"/>
<stop offset="0.5" stop-color="#8B5CF6"/>
<stop offset="1" stop-color="#D946EF"/>
</linearGradient>
<linearGradient id="paint12_linear_20005153_5103" x1="775.941" y1="215.948" x2="749.205" y2="215.948" gradientUnits="userSpaceOnUse">
<stop stop-color="#6366F1"/>
<stop offset="0.5" stop-color="#8B5CF6"/>
<stop offset="1" stop-color="#D946EF"/>
</linearGradient>
<linearGradient id="paint13_linear_20005153_5103" x1="705.833" y1="54.9869" x2="596.061" y2="54.9869" gradientUnits="userSpaceOnUse">
<stop stop-color="#6366F1"/>
<stop offset="0.5" stop-color="#8B5CF6"/>
<stop offset="1" stop-color="#D946EF"/>
</linearGradient>
<clipPath id="clip0_20005153_5103">
<rect width="770" height="568" fill="white" transform="matrix(-1 0 0 -1 770 568)"/>
</clipPath>
</defs>
</svg>
